<svg width="42" height="42" viewBox="0 0 42 42" fill="none" xmlns="http://www.w3.org/2000/svg">
<g clip-path="url(#clip0_121_62)">
<path d="M42.0383 19.5383C42.0383 22.2354 41.507 24.9061 40.4749 27.398C39.4427 29.8898 37.9299 32.1539 36.0227 34.0611C34.1156 35.9682 31.8515 37.4811 29.3596 38.5132C26.8678 39.5454 24.1971 40.0766 21.5 40.0766C18.8028 40.0766 16.1321 39.5454 13.6403 38.5132C11.1485 37.4811 8.88436 35.9682 6.9772 34.0611C5.07004 32.1539 3.5572 29.8898 2.52505 27.398C1.49291 24.9061 0.96167 22.2354 0.96167 19.5383L21.5 19.5383H42.0383Z" fill="#D0311E"/>
<path d="M37.7318 3.30653C37.7318 5.43813 37.312 7.54886 36.4962 9.5182C35.6805 11.4875 34.4849 13.2769 32.9776 14.7842C31.4703 16.2915 29.681 17.4871 27.7116 18.3028C25.7423 19.1186 23.6315 19.5384 21.4999 19.5384C19.3683 19.5384 17.2576 19.1186 15.2883 18.3028C13.3189 17.4871 11.5295 16.2915 10.0223 14.7842C8.515 13.2769 7.31937 11.4875 6.50364 9.5182C5.68792 7.54885 5.26807 5.43813 5.26807 3.30652L21.4999 3.30653H37.7318Z" fill="#D0311E"/>
</g>
<defs>
<clipPath id="clip0_121_62">
<rect width="41" height="37" fill="white" transform="translate(1 3)"/>
</clipPath>
</defs>
</svg>
