<svg width="379" height="289" viewBox="0 0 379 289" fill="none" xmlns="http://www.w3.org/2000/svg">
<path d="M348.004 22.7594C335.963 27.7348 314.071 36.5912 299.244 42.5618C284.516 48.5324 272.277 53.8064 272.177 54.2044C272.078 54.6025 276.954 58.7819 283.123 63.4588C289.193 68.1358 294.268 72.4147 294.467 73.0118C294.666 73.5093 292.776 76.7931 290.288 80.1765C287.8 83.5598 285.81 86.5451 285.81 86.8436C285.81 87.1422 287.999 87.3412 290.786 87.3412H295.761L295.96 118.189L296.259 149.137L312.678 125.553C321.733 112.617 329.395 101.571 329.694 101.074C329.992 100.576 335.864 104.457 342.531 109.631C349.297 114.905 354.87 119.085 355.069 118.985C355.268 118.687 358.452 96.5956 362.532 67.4392C363.03 63.3593 365.02 49.627 366.811 37.0888C368.602 24.451 370.095 14.102 369.995 14.0025C369.896 13.903 360.044 17.8834 348.004 22.7594Z" fill="white"/>
<path d="M75.8438 148.242V209.241L78.232 206.753C79.6251 205.36 90.9692 191.926 103.706 176.9C116.344 161.874 127.091 149.535 127.589 149.535C128.086 149.535 134.654 158.292 142.117 168.94C168.885 206.952 184.309 228.546 185.205 229.044C185.703 229.442 188.19 226.854 190.578 223.471C192.967 219.988 200.231 209.54 206.699 200.285C213.167 190.931 220.63 180.184 223.317 176.403C226.004 172.522 241.03 151.028 256.553 128.638L284.914 87.8392L267.798 87.5407C252.374 87.3416 250.384 87.4412 248.891 89.0333C247.896 90.0284 241.428 99.0838 234.363 109.234C208.689 145.953 187.991 175.408 187.096 176.701C185.902 177.995 187.792 180.582 137.241 108.239L122.912 87.8392L99.4276 87.5407L75.8438 87.3416V148.242Z" fill="white"/>
<path d="M291.78 155.307C289.89 158.093 284.516 165.855 279.839 172.522C275.162 179.189 267.599 190.036 262.922 196.703C258.245 203.37 251.678 212.823 248.295 217.699L242.025 226.556V248.448V270.439H269.391H296.756V210.236C296.756 177.099 296.457 150.033 296.059 150.033C295.562 150.033 293.671 152.421 291.78 155.307Z" fill="white"/>
<path d="M59.4255 228.844C50.6686 239.392 39.1255 253.025 33.752 259.195L24 270.439H49.8725H75.8446V240.089C75.8446 223.371 75.7451 209.739 75.6456 209.838C75.4465 209.838 68.1823 218.396 59.4255 228.844Z" fill="white"/>
<path d="M115.549 235.113C109.678 241.681 100.324 252.229 94.7517 258.498L84.7012 269.942L105.3 270.24C116.644 270.34 126.097 270.34 126.296 270.141C126.495 269.942 126.495 259.294 126.396 246.457L126.097 223.172L115.549 235.113Z" fill="white"/>
</svg>
