<?xml version="1.0" encoding="UTF-8"?>
<svg id="Layer_1" xmlns="http://www.w3.org/2000/svg" version="1.1" viewBox="0 0 379 289">
  <!-- Generator: Adobe Illustrator 30.3.0, SVG Export Plug-In . SVG Version: 2.1.3 Build 182)  -->
  <defs>
    <style>
      .st0 {
        fill: #fff;
      }
    </style>
  </defs>
  <path class="st0" d="M350.8,23.4c-12.9,5.3-36.3,14.8-52.1,21.2-15.7,6.4-28.8,12-28.9,12.4-.1.4,5.1,4.9,11.7,9.9,6.5,5,11.9,9.6,12.1,10.2.2.5-1.8,4-4.5,7.7-2.7,3.6-4.8,6.8-4.8,7.1s2.3.5,5.3.5h5.3l.2,33,.3,33.1,17.5-25.2c9.7-13.8,17.9-25.6,18.2-26.2.3-.5,6.6,3.6,13.7,9.1,7.2,5.6,13.2,10.1,13.4,10,.2-.3,3.6-23.9,8-55.1.5-4.4,2.7-19,4.6-32.4,1.9-13.5,3.5-24.6,3.4-24.7-.1-.1-10.6,4.1-23.5,9.4Z"/>
  <path class="st0" d="M60,157.4v65.2l2.6-2.7c1.5-1.5,13.6-15.8,27.2-31.9,13.5-16.1,25-29.2,25.5-29.2s7.5,9.4,15.5,20.7c28.6,40.6,45.1,63.7,46,64.2.5.4,3.2-2.3,5.7-6,2.6-3.7,10.3-14.9,17.2-24.8,6.9-10,14.9-21.5,17.8-25.5,2.9-4.1,18.9-27.1,35.5-51l30.3-43.6-18.3-.3c-16.5-.2-18.6-.1-20.2,1.6-1.1,1.1-8,10.7-15.5,21.6-27.4,39.2-49.5,70.7-50.5,72.1-1.3,1.4.7,4.1-53.3-73.2l-15.3-21.8-25.1-.3-25.2-.2v65.1Z"/>
  <path class="st0" d="M290.8,165c-2,3-7.8,11.3-12.8,18.4-5,7.1-13.1,18.7-18.1,25.8-5,7.1-12,17.2-15.6,22.4l-6.7,9.5v46.9h58.5v-64.3c0-35.4-.3-64.3-.7-64.3s-2.6,2.6-4.6,5.6Z"/>
  <path class="st0" d="M42.5,243.6c-9.4,11.3-21.7,25.8-27.4,32.4l-10.4,12h55.4v-32.4c0-17.9-.1-32.4-.2-32.3-.2,0-8,9.1-17.3,20.3Z"/>
  <path class="st0" d="M102.5,250.3c-6.3,7-16.3,18.3-22.2,25l-10.7,12.2,22,.3c12.1.1,22.2.1,22.4-.1.2-.2.2-11.6.1-25.3l-.3-24.9-11.3,12.8Z"/>
</svg>