<svg width="1181" height="698" viewBox="0 0 1181 698" fill="none" xmlns="http://www.w3.org/2000/svg">
<path d="M889.084 17.3306C865.26 27.1753 821.944 44.6988 792.607 56.5123C763.467 68.3259 739.249 78.7613 739.052 79.5488C738.855 80.3364 748.503 88.6059 760.71 97.8599C772.72 107.114 782.762 115.58 783.156 116.762C783.55 117.746 779.809 124.244 774.886 130.938C769.964 137.632 766.026 143.539 766.026 144.13C766.026 144.72 770.358 145.114 775.871 145.114H785.715L786.109 206.151L786.7 267.385L819.187 220.721C837.105 195.125 852.265 173.27 852.856 172.285C853.447 171.301 865.063 178.98 878.255 189.218C891.644 199.654 902.67 207.923 903.064 207.726C903.457 207.136 909.758 163.425 917.831 105.736C918.815 97.663 922.753 70.4917 926.297 45.6832C929.841 20.6778 932.795 0.200935 932.598 0.00404248C932.401 -0.192851 912.908 7.68287 889.084 17.3306Z" fill="#0044BD"/>
<path d="M350.582 265.613V386.309L355.307 381.386C358.064 378.63 380.51 352.049 405.712 322.318C430.717 292.587 451.982 268.173 452.966 268.173C453.951 268.173 466.946 285.499 481.713 306.567C534.677 381.78 565.195 424.506 566.967 425.49C567.952 426.278 572.874 421.159 577.6 414.464C582.325 407.573 596.698 386.899 609.496 368.588C622.294 350.08 637.061 328.816 642.378 321.334C647.694 313.655 677.424 271.126 708.14 226.825L764.254 146.099L730.389 145.508C699.87 145.115 695.932 145.311 692.979 148.462C691.01 150.431 678.212 168.348 664.233 188.431C613.434 261.085 572.48 319.365 570.708 321.924C568.346 324.484 572.087 329.603 472.065 186.462L443.712 146.099L397.246 145.508L350.582 145.115V265.613Z" fill="#1F1F1F"/>
<path d="M777.839 279.592C774.098 285.105 763.466 300.463 754.212 313.655C744.958 326.847 729.994 348.308 720.74 361.5C711.486 374.692 698.491 393.396 691.797 403.044L679.393 420.568V463.884V507.397H733.538H787.684V388.277C787.684 322.712 787.093 269.157 786.305 269.157C785.321 269.157 781.58 273.882 777.839 279.592Z" fill="#1F1F1F"/>
<path d="M318.094 425.096C300.767 445.967 277.928 472.941 267.296 485.149L248 507.397H299.192H350.581V447.345C350.581 414.267 350.384 387.293 350.187 387.49C349.794 387.49 335.421 404.422 318.094 425.096Z" fill="#0044BD"/>
<path d="M429.142 437.501C417.526 450.496 399.018 471.367 387.992 483.771L368.105 506.414L408.862 507.004C431.308 507.201 450.013 507.201 450.407 506.808C450.801 506.414 450.801 485.346 450.604 459.947L450.013 413.874L429.142 437.501Z" fill="#1F1F1F"/>
<path d="M11.268 694.797V585.297H49.968L72.468 643.047H75.468L97.818 585.297H137.268V694.797H109.668V601.347L114.018 601.647L85.818 672.747H60.468L32.118 601.647L36.768 601.347V694.797H11.268ZM159.81 694.797V585.297H187.71V694.797H159.81ZM210.194 694.797V584.397H238.094V694.797H210.194ZM276.194 694.797L245.444 648.297H275.744L308.294 694.797H276.194ZM231.044 661.197V639.747H257.294C260.594 639.747 263.444 639.097 265.844 637.797C268.244 636.497 270.094 634.647 271.394 632.247C272.794 629.847 273.494 627.047 273.494 623.847C273.494 620.547 272.794 617.697 271.394 615.297C270.094 612.897 268.244 611.047 265.844 609.747C263.444 608.447 260.594 607.797 257.294 607.797H231.044V584.397H255.644C265.144 584.397 273.344 585.847 280.244 588.747C287.144 591.547 292.444 595.747 296.144 601.347C299.844 606.847 301.694 613.697 301.694 621.897V624.297C301.694 632.497 299.794 639.347 295.994 644.847C292.294 650.247 286.994 654.347 280.094 657.147C273.294 659.847 265.144 661.197 255.644 661.197H231.044ZM311.329 694.797L346.429 585.297H391.129L427.429 694.797H398.629L370.429 604.797L378.379 607.797H358.579L366.679 604.797L339.229 694.797H311.329ZM339.979 669.447L348.379 646.647H389.929L398.329 669.447H339.979ZM463.735 695.697V674.397H487.885C491.985 674.397 495.035 673.347 497.035 671.247C499.035 669.147 500.035 666.097 500.035 662.097C500.035 658.097 499.035 655.097 497.035 653.097C495.035 650.997 491.985 649.947 487.885 649.947H463.735V633.447H486.985C494.685 633.447 501.585 634.397 507.685 636.297C513.785 638.097 518.585 641.097 522.085 645.297C525.585 649.497 527.335 655.097 527.335 662.097V664.197C527.335 670.797 525.785 676.447 522.685 681.147C519.585 685.847 515.035 689.447 509.035 691.947C503.035 694.447 495.685 695.697 486.985 695.697H463.735ZM439.735 695.697V584.397H466.735V695.697H439.735ZM463.735 645.747V629.247H483.835C487.935 629.247 490.885 628.247 492.685 626.247C494.585 624.147 495.535 621.247 495.535 617.547C495.535 613.747 494.585 610.847 492.685 608.847C490.885 606.747 487.935 605.697 483.835 605.697H463.735V584.397H482.635C495.435 584.397 505.335 587.097 512.335 592.497C519.335 597.797 522.835 605.397 522.835 615.297V617.547C522.835 624.447 521.035 629.997 517.435 634.197C513.935 638.297 509.135 641.247 503.035 643.047C497.035 644.847 490.235 645.747 482.635 645.747H463.735ZM597.292 697.797C587.292 697.797 578.592 696.097 571.192 692.697C563.792 689.197 557.642 684.647 552.742 679.047C547.842 673.347 544.192 667.197 541.792 660.597C539.392 653.997 538.192 647.597 538.192 641.397V638.097C538.192 631.197 539.442 624.447 541.942 617.847C544.442 611.147 548.192 605.097 553.192 599.697C558.192 594.297 564.342 589.997 571.642 586.797C579.042 583.597 587.592 581.997 597.292 581.997C606.892 581.997 615.342 583.597 622.642 586.797C630.042 589.997 636.242 594.297 641.242 599.697C646.242 605.097 649.992 611.147 652.492 617.847C655.092 624.447 656.392 631.197 656.392 638.097V641.397C656.392 647.597 655.142 653.997 652.642 660.597C650.242 667.197 646.592 673.347 641.692 679.047C636.792 684.647 630.642 689.197 623.242 692.697C615.842 696.097 607.192 697.797 597.292 697.797ZM597.292 671.697C602.092 671.697 606.392 670.897 610.192 669.297C613.992 667.697 617.242 665.447 619.942 662.547C622.642 659.647 624.692 656.297 626.092 652.497C627.492 648.597 628.192 644.397 628.192 639.897C628.192 635.097 627.442 630.747 625.942 626.847C624.542 622.947 622.492 619.597 619.792 616.797C617.092 613.997 613.842 611.847 610.042 610.347C606.242 608.847 601.992 608.097 597.292 608.097C592.492 608.097 588.192 608.847 584.392 610.347C580.592 611.847 577.342 613.997 574.642 616.797C571.942 619.597 569.892 622.947 568.492 626.847C567.092 630.747 566.392 635.097 566.392 639.897C566.392 644.397 567.092 648.597 568.492 652.497C569.892 656.297 571.942 659.647 574.642 662.547C577.342 665.447 580.592 667.697 584.392 669.297C588.192 670.897 592.492 671.697 597.292 671.697ZM673.231 694.797V585.297H701.131V694.797H673.231ZM698.131 694.797V670.497H742.531V694.797H698.131ZM748.145 694.797L783.245 585.297H827.945L864.245 694.797H835.445L807.245 604.797L815.195 607.797H795.395L803.495 604.797L776.045 694.797H748.145ZM776.795 669.447L785.195 646.647H826.745L835.145 669.447H776.795ZM876.551 694.797V585.297H922.301L958.751 672.597H964.001L961.001 675.297V585.297H987.101V694.797H941.051L904.601 607.497H899.351L902.351 604.797V694.797H876.551ZM1031.17 694.797V606.597H1059.07V694.797H1031.17ZM1001.17 609.597V585.297H1089.07V609.597H1001.17ZM1103.16 694.797V585.297H1130.16V694.797H1103.16ZM1127.16 694.797V671.997H1173.36V694.797H1127.16ZM1127.16 650.547V627.747H1170.21V650.547H1127.16ZM1127.16 608.097V585.297H1172.46V608.097H1127.16Z" fill="#1F1F1F"/>
</svg>
