<svg width="1575" height="716" viewBox="0 0 1575 716" fill="none" xmlns="http://www.w3.org/2000/svg">
<path d="M1086.08 17.3306C1062.26 27.1753 1018.94 44.6988 989.607 56.5123C960.467 68.3259 936.249 78.7613 936.052 79.5488C935.855 80.3364 945.503 88.6059 957.71 97.8599C969.72 107.114 979.762 115.58 980.156 116.762C980.55 117.746 976.809 124.244 971.886 130.938C966.964 137.632 963.026 143.539 963.026 144.13C963.026 144.72 967.358 145.114 972.871 145.114H982.715L983.109 206.151L983.7 267.385L1016.19 220.721C1034.1 195.125 1049.27 173.27 1049.86 172.285C1050.45 171.301 1062.06 178.98 1075.26 189.218C1088.64 199.654 1099.67 207.923 1100.06 207.726C1100.46 207.136 1106.76 163.425 1114.83 105.736C1115.82 97.663 1119.75 70.4917 1123.3 45.6832C1126.84 20.6778 1129.79 0.200935 1129.6 0.00404248C1129.4 -0.192851 1109.91 7.68287 1086.08 17.3306Z" fill="#0044BD"/>
<path d="M547.582 265.613V386.309L552.307 381.386C555.064 378.63 577.51 352.049 602.712 322.318C627.717 292.587 648.982 268.173 649.966 268.173C650.951 268.173 663.946 285.499 678.713 306.567C731.677 381.78 762.195 424.506 763.967 425.49C764.952 426.278 769.874 421.159 774.6 414.464C779.325 407.573 793.698 386.899 806.496 368.588C819.294 350.08 834.061 328.816 839.378 321.334C844.694 313.655 874.424 271.126 905.14 226.825L961.254 146.099L927.389 145.508C896.87 145.115 892.932 145.311 889.979 148.462C888.01 150.431 875.212 168.348 861.233 188.431C810.434 261.085 769.48 319.365 767.708 321.924C765.346 324.484 769.087 329.603 669.065 186.462L640.712 146.099L594.246 145.508L547.582 145.115V265.613Z" fill="white"/>
<path d="M974.839 279.591C971.098 285.104 960.466 300.462 951.212 313.654C941.958 326.846 926.994 348.307 917.74 361.499C908.486 374.691 895.491 393.395 888.797 403.043L876.393 420.567V463.883V507.396H930.538H984.684V388.276C984.684 322.711 984.093 269.156 983.305 269.156C982.321 269.156 978.58 273.881 974.839 279.591Z" fill="white"/>
<path d="M515.094 425.095C497.767 445.966 474.928 472.94 464.296 485.148L445 507.396H496.192H547.581V447.344C547.581 414.266 547.384 387.292 547.187 387.489C546.794 387.489 532.421 404.421 515.094 425.095Z" fill="#0044BD"/>
<path d="M626.142 437.5C614.526 450.495 596.018 471.366 584.992 483.77L565.105 506.413L605.862 507.003C628.308 507.2 647.013 507.2 647.407 506.807C647.801 506.413 647.801 485.345 647.604 459.946L647.013 413.873L626.142 437.5Z" fill="white"/>
<path d="M15.1906 711.796V565.796H66.7906L96.7906 642.796H100.791L130.591 565.796H183.191V711.796H146.391V587.196L152.191 587.596L114.591 682.396H80.7906L42.9906 587.596L49.1906 587.196V711.796H15.1906ZM213.247 711.796V565.796H250.447V711.796H213.247ZM280.425 711.796V564.596H317.625V711.796H280.425ZM368.425 711.796L327.425 649.796H367.825L411.225 711.796H368.425ZM308.225 666.996V638.396H343.225C347.625 638.396 351.425 637.529 354.625 635.796C357.825 634.063 360.292 631.596 362.025 628.396C363.892 625.196 364.825 621.463 364.825 617.196C364.825 612.796 363.892 608.996 362.025 605.796C360.292 602.596 357.825 600.129 354.625 598.396C351.425 596.663 347.625 595.796 343.225 595.796H308.225V564.596H341.025C353.692 564.596 364.625 566.529 373.825 570.396C383.025 574.129 390.092 579.729 395.025 587.196C399.958 594.529 402.425 603.663 402.425 614.596V617.796C402.425 628.729 399.892 637.863 394.825 645.196C389.892 652.396 382.825 657.863 373.625 661.596C364.558 665.196 353.692 666.996 341.025 666.996H308.225ZM415.272 711.796L462.072 565.796H521.672L570.072 711.796H531.672L494.072 591.796L504.672 595.796H478.272L489.072 591.796L452.472 711.796H415.272ZM453.472 677.996L464.672 647.596H520.072L531.272 677.996H453.472ZM618.48 712.996V684.596H650.68C656.146 684.596 660.213 683.196 662.88 680.396C665.546 677.596 666.88 673.529 666.88 668.196C666.88 662.863 665.546 658.863 662.88 656.196C660.213 653.396 656.146 651.996 650.68 651.996H618.48V629.996H649.48C659.746 629.996 668.946 631.263 677.08 633.796C685.213 636.196 691.613 640.196 696.28 645.796C700.946 651.396 703.28 658.863 703.28 668.196V670.996C703.28 679.796 701.213 687.329 697.08 693.596C692.946 699.863 686.88 704.663 678.88 707.996C670.88 711.329 661.08 712.996 649.48 712.996H618.48ZM586.48 712.996V564.596H622.48V712.996H586.48ZM618.48 646.396V624.396H645.28C650.746 624.396 654.68 623.063 657.08 620.396C659.613 617.596 660.88 613.729 660.88 608.796C660.88 603.729 659.613 599.863 657.08 597.196C654.68 594.396 650.746 592.996 645.28 592.996H618.48V564.596H643.68C660.746 564.596 673.946 568.196 683.28 575.396C692.613 582.463 697.28 592.596 697.28 605.796V608.796C697.28 617.996 694.88 625.396 690.08 630.996C685.413 636.463 679.013 640.396 670.88 642.796C662.88 645.196 653.813 646.396 643.68 646.396H618.48ZM796.556 715.796C783.223 715.796 771.623 713.529 761.756 708.996C751.89 704.329 743.69 698.263 737.156 690.796C730.623 683.196 725.756 674.996 722.556 666.196C719.356 657.396 717.756 648.863 717.756 640.596V636.196C717.756 626.996 719.423 617.996 722.756 609.196C726.09 600.263 731.09 592.196 737.756 584.996C744.423 577.796 752.623 572.063 762.356 567.796C772.223 563.529 783.623 561.396 796.556 561.396C809.356 561.396 820.623 563.529 830.356 567.796C840.223 572.063 848.49 577.796 855.156 584.996C861.823 592.196 866.823 600.263 870.156 609.196C873.623 617.996 875.356 626.996 875.356 636.196V640.596C875.356 648.863 873.69 657.396 870.356 666.196C867.156 674.996 862.29 683.196 855.756 690.796C849.223 698.263 841.023 704.329 831.156 708.996C821.29 713.529 809.756 715.796 796.556 715.796ZM796.556 680.996C802.956 680.996 808.69 679.929 813.756 677.796C818.823 675.663 823.156 672.663 826.756 668.796C830.356 664.929 833.09 660.463 834.956 655.396C836.823 650.196 837.756 644.596 837.756 638.596C837.756 632.196 836.756 626.396 834.756 621.196C832.89 615.996 830.156 611.529 826.556 607.796C822.956 604.063 818.623 601.196 813.556 599.196C808.49 597.196 802.823 596.196 796.556 596.196C790.156 596.196 784.423 597.196 779.356 599.196C774.29 601.196 769.956 604.063 766.356 607.796C762.756 611.529 760.023 615.996 758.156 621.196C756.29 626.396 755.356 632.196 755.356 638.596C755.356 644.596 756.29 650.196 758.156 655.396C760.023 660.463 762.756 664.929 766.356 668.796C769.956 672.663 774.29 675.663 779.356 677.796C784.423 679.929 790.156 680.996 796.556 680.996ZM897.808 711.796V565.796H935.008V711.796H897.808ZM931.008 711.796V679.396H990.208V711.796H931.008ZM997.694 711.796L1044.49 565.796H1104.09L1152.49 711.796H1114.09L1076.49 591.796L1087.09 595.796H1060.69L1071.49 591.796L1034.89 711.796H997.694ZM1035.89 677.996L1047.09 647.596H1102.49L1113.69 677.996H1035.89ZM1168.9 711.796V565.796H1229.9L1278.5 682.196H1285.5L1281.5 685.796V565.796H1316.3V711.796H1254.9L1206.3 595.396H1199.3L1203.3 591.796V711.796H1168.9ZM1375.05 711.796V594.196H1412.25V711.796H1375.05ZM1335.05 598.196V565.796H1452.25V598.196H1335.05ZM1471.05 711.796V565.796H1507.05V711.796H1471.05ZM1503.05 711.796V681.396H1564.65V711.796H1503.05ZM1503.05 652.796V622.396H1560.45V652.796H1503.05ZM1503.05 596.196V565.796H1563.45V596.196H1503.05Z" fill="white"/>
</svg>
