<svg width="4091" height="517" viewBox="0 0 4091 517" fill="none" xmlns="http://www.w3.org/2000/svg">
<path d="M687.297 507.001V142.001H780.297V507.001H687.297ZM855.242 507.001V139.001H948.242V507.001H855.242ZM1075.24 507.001L972.742 352.001H1073.74L1182.24 507.001H1075.24ZM924.742 395.001V323.501H1012.24C1023.24 323.501 1032.74 321.334 1040.74 317.001C1048.74 312.668 1054.91 306.501 1059.24 298.501C1063.91 290.501 1066.24 281.168 1066.24 270.501C1066.24 259.501 1063.91 250.001 1059.24 242.001C1054.91 234.001 1048.74 227.834 1040.74 223.501C1032.74 219.168 1023.24 217.001 1012.24 217.001H924.742V139.001H1006.74C1038.41 139.001 1065.74 143.834 1088.74 153.501C1111.74 162.834 1129.41 176.834 1141.74 195.501C1154.08 213.834 1160.24 236.668 1160.24 264.001V272.001C1160.24 299.334 1153.91 322.168 1141.24 340.501C1128.91 358.501 1111.24 372.168 1088.24 381.501C1065.58 390.501 1038.41 395.001 1006.74 395.001H924.742ZM1192.36 507.001L1309.36 142.001H1458.36L1579.36 507.001H1483.36L1389.36 207.001L1415.86 217.001H1349.86L1376.86 207.001L1285.36 507.001H1192.36ZM1287.86 422.501L1315.86 346.501H1454.36L1482.36 422.501H1287.86ZM1700.38 510.001V439.001H1780.88C1794.55 439.001 1804.71 435.501 1811.38 428.501C1818.05 421.501 1821.38 411.334 1821.38 398.001C1821.38 384.668 1818.05 374.668 1811.38 368.001C1804.71 361.001 1794.55 357.501 1780.88 357.501H1700.38V302.501H1777.88C1803.55 302.501 1826.55 305.668 1846.88 312.001C1867.21 318.001 1883.21 328.001 1894.88 342.001C1906.55 356.001 1912.38 374.668 1912.38 398.001V405.001C1912.38 427.001 1907.21 445.834 1896.88 461.501C1886.55 477.168 1871.38 489.168 1851.38 497.501C1831.38 505.834 1806.88 510.001 1777.88 510.001H1700.38ZM1620.38 510.001V139.001H1710.38V510.001H1620.38ZM1700.38 343.501V288.501H1767.38C1781.05 288.501 1790.88 285.168 1796.88 278.501C1803.21 271.501 1806.38 261.834 1806.38 249.501C1806.38 236.834 1803.21 227.168 1796.88 220.501C1790.88 213.501 1781.05 210.001 1767.38 210.001H1700.38V139.001H1763.38C1806.05 139.001 1839.05 148.001 1862.38 166.001C1885.71 183.668 1897.38 209.001 1897.38 242.001V249.501C1897.38 272.501 1891.38 291.001 1879.38 305.001C1867.71 318.668 1851.71 328.501 1831.38 334.501C1811.38 340.501 1788.71 343.501 1763.38 343.501H1700.38ZM2145.57 517.001C2112.24 517.001 2083.24 511.334 2058.57 500.001C2033.9 488.334 2013.4 473.168 1997.07 454.501C1980.74 435.501 1968.57 415.001 1960.57 393.001C1952.57 371.001 1948.57 349.668 1948.57 329.001V318.001C1948.57 295.001 1952.74 272.501 1961.07 250.501C1969.4 228.168 1981.9 208.001 1998.57 190.001C2015.24 172.001 2035.74 157.668 2060.07 147.001C2084.74 136.334 2113.24 131.001 2145.57 131.001C2177.57 131.001 2205.74 136.334 2230.07 147.001C2254.74 157.668 2275.4 172.001 2292.07 190.001C2308.74 208.001 2321.24 228.168 2329.57 250.501C2338.24 272.501 2342.57 295.001 2342.57 318.001V329.001C2342.57 349.668 2338.4 371.001 2330.07 393.001C2322.07 415.001 2309.9 435.501 2293.57 454.501C2277.24 473.168 2256.74 488.334 2232.07 500.001C2207.4 511.334 2178.57 517.001 2145.57 517.001ZM2145.57 430.001C2161.57 430.001 2175.9 427.334 2188.57 422.001C2201.24 416.668 2212.07 409.168 2221.07 399.501C2230.07 389.834 2236.9 378.668 2241.57 366.001C2246.24 353.001 2248.57 339.001 2248.57 324.001C2248.57 308.001 2246.07 293.501 2241.07 280.501C2236.4 267.501 2229.57 256.334 2220.57 247.001C2211.57 237.668 2200.74 230.501 2188.07 225.501C2175.4 220.501 2161.24 218.001 2145.57 218.001C2129.57 218.001 2115.24 220.501 2102.57 225.501C2089.9 230.501 2079.07 237.668 2070.07 247.001C2061.07 256.334 2054.24 267.501 2049.57 280.501C2044.9 293.501 2042.57 308.001 2042.57 324.001C2042.57 339.001 2044.9 353.001 2049.57 366.001C2054.24 378.668 2061.07 389.834 2070.07 399.501C2079.07 409.168 2089.9 416.668 2102.57 422.001C2115.24 427.334 2129.57 430.001 2145.57 430.001ZM2398.7 507.001V142.001H2491.7V507.001H2398.7ZM2481.7 507.001V426.001H2629.7V507.001H2481.7ZM2648.41 507.001L2765.41 142.001H2914.41L3035.41 507.001H2939.41L2845.41 207.001L2871.91 217.001H2805.91L2832.91 207.001L2741.41 507.001H2648.41ZM2743.91 422.501L2771.91 346.501H2910.41L2938.41 422.501H2743.91ZM3076.43 507.001V142.001H3228.93L3350.43 433.001H3367.93L3357.93 442.001V142.001H3444.93V507.001H3291.43L3169.93 216.001H3152.43L3162.43 207.001V507.001H3076.43ZM3591.82 507.001V213.001H3684.82V507.001H3591.82ZM3491.82 223.001V142.001H3784.82V223.001H3491.82ZM3831.8 507.001V142.001H3921.8V507.001H3831.8ZM3911.8 507.001V431.001H4065.8V507.001H3911.8ZM3911.8 359.501V283.501H4055.3V359.501H3911.8ZM3911.8 218.001V142.001H4062.8V218.001H3911.8Z" fill="white"/>
<path d="M641.084 17.3306C617.26 27.1753 573.944 44.6988 544.607 56.5123C515.467 68.3259 491.249 78.7613 491.052 79.5488C490.855 80.3364 500.503 88.6059 512.71 97.8599C524.72 107.114 534.762 115.58 535.156 116.762C535.55 117.746 531.809 124.244 526.886 130.938C521.964 137.632 518.026 143.539 518.026 144.13C518.026 144.72 522.358 145.114 527.871 145.114H537.715L538.109 206.151L538.7 267.385L571.187 220.721C589.105 195.125 604.265 173.27 604.856 172.285C605.447 171.301 617.063 178.98 630.255 189.218C643.644 199.654 654.67 207.923 655.064 207.726C655.457 207.136 661.758 163.425 669.831 105.736C670.815 97.663 674.753 70.4917 678.297 45.6832C681.841 20.6778 684.795 0.200935 684.598 0.00404248C684.401 -0.192851 664.908 7.68287 641.084 17.3306Z" fill="white"/>
<path d="M102.582 265.613V386.309L107.307 381.386C110.064 378.63 132.51 352.049 157.712 322.318C182.717 292.587 203.982 268.173 204.966 268.173C205.951 268.173 218.946 285.499 233.713 306.567C286.677 381.78 317.195 424.506 318.967 425.49C319.952 426.278 324.874 421.159 329.6 414.464C334.325 407.573 348.698 386.899 361.496 368.588C374.294 350.08 389.061 328.816 394.378 321.334C399.694 313.655 429.424 271.126 460.14 226.825L516.254 146.099L482.389 145.508C451.87 145.115 447.932 145.311 444.979 148.462C443.01 150.431 430.212 168.348 416.233 188.431C365.434 261.085 324.48 319.365 322.708 321.924C320.346 324.484 324.087 329.603 224.065 186.462L195.712 146.099L149.246 145.508L102.582 145.115V265.613Z" fill="white"/>
<path d="M529.839 279.592C526.098 285.105 515.466 300.463 506.212 313.655C496.958 326.847 481.994 348.308 472.74 361.5C463.486 374.692 450.491 393.396 443.797 403.044L431.393 420.568V463.884V507.397H485.538H539.684V388.277C539.684 322.712 539.093 269.157 538.305 269.157C537.321 269.157 533.58 273.882 529.839 279.592Z" fill="white"/>
<path d="M70.0939 425.096C52.7673 445.967 29.9277 472.941 19.2955 485.149L0 507.397H51.1922H102.581V447.345C102.581 414.267 102.384 387.293 102.187 387.49C101.794 387.49 87.4205 404.422 70.0939 425.096Z" fill="white"/>
<path d="M181.142 437.501C169.526 450.496 151.018 471.367 139.992 483.771L120.105 506.414L160.862 507.004C183.308 507.201 202.013 507.201 202.407 506.808C202.801 506.414 202.801 485.346 202.604 459.947L202.013 413.874L181.142 437.501Z" fill="white"/>
</svg>
