<svg width="4091" height="517" viewBox="0 0 4091 517" fill="none" xmlns="http://www.w3.org/2000/svg">
<path d="M687.297 507V142H780.297V507H687.297ZM855.242 507V139H948.242V507H855.242ZM1075.24 507L972.742 352H1073.74L1182.24 507H1075.24ZM924.742 395V323.5H1012.24C1023.24 323.5 1032.74 321.333 1040.74 317C1048.74 312.667 1054.91 306.5 1059.24 298.5C1063.91 290.5 1066.24 281.167 1066.24 270.5C1066.24 259.5 1063.91 250 1059.24 242C1054.91 234 1048.74 227.833 1040.74 223.5C1032.74 219.167 1023.24 217 1012.24 217H924.742V139H1006.74C1038.41 139 1065.74 143.833 1088.74 153.5C1111.74 162.833 1129.41 176.833 1141.74 195.5C1154.08 213.833 1160.24 236.667 1160.24 264V272C1160.24 299.333 1153.91 322.167 1141.24 340.5C1128.91 358.5 1111.24 372.167 1088.24 381.5C1065.58 390.5 1038.41 395 1006.74 395H924.742ZM1192.36 507L1309.36 142H1458.36L1579.36 507H1483.36L1389.36 207L1415.86 217H1349.86L1376.86 207L1285.36 507H1192.36ZM1287.86 422.5L1315.86 346.5H1454.36L1482.36 422.5H1287.86ZM1700.38 510V439H1780.88C1794.55 439 1804.71 435.5 1811.38 428.5C1818.05 421.5 1821.38 411.333 1821.38 398C1821.38 384.667 1818.05 374.667 1811.38 368C1804.71 361 1794.55 357.5 1780.88 357.5H1700.38V302.5H1777.88C1803.55 302.5 1826.55 305.667 1846.88 312C1867.21 318 1883.21 328 1894.88 342C1906.55 356 1912.38 374.667 1912.38 398V405C1912.38 427 1907.21 445.833 1896.88 461.5C1886.55 477.167 1871.38 489.167 1851.38 497.5C1831.38 505.833 1806.88 510 1777.88 510H1700.38ZM1620.38 510V139H1710.38V510H1620.38ZM1700.38 343.5V288.5H1767.38C1781.05 288.5 1790.88 285.167 1796.88 278.5C1803.21 271.5 1806.38 261.833 1806.38 249.5C1806.38 236.833 1803.21 227.167 1796.88 220.5C1790.88 213.5 1781.05 210 1767.38 210H1700.38V139H1763.38C1806.05 139 1839.05 148 1862.38 166C1885.71 183.667 1897.38 209 1897.38 242V249.5C1897.38 272.5 1891.38 291 1879.38 305C1867.71 318.667 1851.71 328.5 1831.38 334.5C1811.38 340.5 1788.71 343.5 1763.38 343.5H1700.38ZM2145.57 517C2112.24 517 2083.24 511.333 2058.57 500C2033.9 488.333 2013.4 473.167 1997.07 454.5C1980.74 435.5 1968.57 415 1960.57 393C1952.57 371 1948.57 349.667 1948.57 329V318C1948.57 295 1952.74 272.5 1961.07 250.5C1969.4 228.167 1981.9 208 1998.57 190C2015.24 172 2035.74 157.667 2060.07 147C2084.74 136.333 2113.24 131 2145.57 131C2177.57 131 2205.74 136.333 2230.07 147C2254.74 157.667 2275.4 172 2292.07 190C2308.74 208 2321.24 228.167 2329.57 250.5C2338.24 272.5 2342.57 295 2342.57 318V329C2342.57 349.667 2338.4 371 2330.07 393C2322.07 415 2309.9 435.5 2293.57 454.5C2277.24 473.167 2256.74 488.333 2232.07 500C2207.4 511.333 2178.57 517 2145.57 517ZM2145.57 430C2161.57 430 2175.9 427.333 2188.57 422C2201.24 416.667 2212.07 409.167 2221.07 399.5C2230.07 389.833 2236.9 378.667 2241.57 366C2246.24 353 2248.57 339 2248.57 324C2248.57 308 2246.07 293.5 2241.07 280.5C2236.4 267.5 2229.57 256.333 2220.57 247C2211.57 237.667 2200.74 230.5 2188.07 225.5C2175.4 220.5 2161.24 218 2145.57 218C2129.57 218 2115.24 220.5 2102.57 225.5C2089.9 230.5 2079.07 237.667 2070.07 247C2061.07 256.333 2054.24 267.5 2049.57 280.5C2044.9 293.5 2042.57 308 2042.57 324C2042.57 339 2044.9 353 2049.57 366C2054.24 378.667 2061.07 389.833 2070.07 399.5C2079.07 409.167 2089.9 416.667 2102.57 422C2115.24 427.333 2129.57 430 2145.57 430ZM2398.7 507V142H2491.7V507H2398.7ZM2481.7 507V426H2629.7V507H2481.7ZM2648.41 507L2765.41 142H2914.41L3035.41 507H2939.41L2845.41 207L2871.91 217H2805.91L2832.91 207L2741.41 507H2648.41ZM2743.91 422.5L2771.91 346.5H2910.41L2938.41 422.5H2743.91ZM3076.43 507V142H3228.93L3350.43 433H3367.93L3357.93 442V142H3444.93V507H3291.43L3169.93 216H3152.43L3162.43 207V507H3076.43ZM3591.82 507V213H3684.82V507H3591.82ZM3491.82 223V142H3784.82V223H3491.82ZM3831.8 507V142H3921.8V507H3831.8ZM3911.8 507V431H4065.8V507H3911.8ZM3911.8 359.5V283.5H4055.3V359.5H3911.8ZM3911.8 218V142H4062.8V218H3911.8Z" fill="#1A1A1A"/>
<path d="M641.084 17.3306C617.26 27.1753 573.944 44.6988 544.607 56.5123C515.467 68.3259 491.249 78.7613 491.052 79.5488C490.855 80.3364 500.503 88.6059 512.71 97.8599C524.72 107.114 534.762 115.58 535.156 116.762C535.55 117.746 531.809 124.244 526.886 130.938C521.964 137.632 518.026 143.539 518.026 144.13C518.026 144.72 522.358 145.114 527.871 145.114H537.715L538.109 206.151L538.7 267.385L571.187 220.721C589.105 195.125 604.265 173.27 604.856 172.285C605.447 171.301 617.063 178.98 630.255 189.218C643.644 199.654 654.67 207.923 655.064 207.726C655.457 207.136 661.758 163.425 669.831 105.736C670.815 97.663 674.753 70.4917 678.297 45.6832C681.841 20.6778 684.795 0.200935 684.598 0.00404248C684.401 -0.192851 664.908 7.68287 641.084 17.3306Z" fill="white"/>
<path d="M102.582 265.613V386.309L107.307 381.386C110.064 378.63 132.51 352.049 157.712 322.318C182.717 292.587 203.982 268.173 204.966 268.173C205.951 268.173 218.946 285.499 233.713 306.567C286.677 381.78 317.195 424.506 318.967 425.49C319.952 426.278 324.874 421.159 329.6 414.464C334.325 407.573 348.698 386.899 361.496 368.588C374.294 350.08 389.061 328.816 394.378 321.334C399.694 313.655 429.424 271.126 460.14 226.825L516.254 146.099L482.389 145.508C451.87 145.115 447.932 145.311 444.979 148.462C443.01 150.431 430.212 168.348 416.233 188.431C365.434 261.085 324.48 319.365 322.708 321.924C320.346 324.484 324.087 329.603 224.065 186.462L195.712 146.099L149.246 145.508L102.582 145.115V265.613Z" fill="#1A1A1A"/>
<path d="M529.839 279.591C526.098 285.104 515.466 300.462 506.212 313.654C496.958 326.846 481.994 348.307 472.74 361.499C463.486 374.691 450.491 393.395 443.797 403.043L431.393 420.567V463.883V507.396H485.538H539.684V388.276C539.684 322.711 539.093 269.156 538.305 269.156C537.321 269.156 533.58 273.881 529.839 279.591Z" fill="#1A1A1A"/>
<path d="M70.0939 425.095C52.7673 445.966 29.9277 472.94 19.2955 485.148L0 507.396H51.1922H102.581V447.344C102.581 414.266 102.384 387.292 102.187 387.489C101.794 387.489 87.4205 404.421 70.0939 425.095Z" fill="white"/>
<path d="M181.142 437.5C169.526 450.495 151.018 471.366 139.992 483.77L120.105 506.413L160.862 507.003C183.308 507.2 202.013 507.2 202.407 506.807C202.801 506.413 202.801 485.345 202.604 459.946L202.013 413.873L181.142 437.5Z" fill="#1A1A1A"/>
</svg>
