<svg width="4032" height="517" viewBox="0 0 4032 517" fill="none" xmlns="http://www.w3.org/2000/svg">
<path d="M628.297 507.001V142.001H721.297V507.001H628.297ZM796.242 507.001V139.001H889.242V507.001H796.242ZM1016.24 507.001L913.742 352.001H1014.74L1123.24 507.001H1016.24ZM865.742 395.001V323.501H953.242C964.242 323.501 973.742 321.334 981.742 317.001C989.742 312.668 995.909 306.501 1000.24 298.501C1004.91 290.501 1007.24 281.168 1007.24 270.501C1007.24 259.501 1004.91 250.001 1000.24 242.001C995.909 234.001 989.742 227.834 981.742 223.501C973.742 219.168 964.242 217.001 953.242 217.001H865.742V139.001H947.742C979.409 139.001 1006.74 143.834 1029.74 153.501C1052.74 162.834 1070.41 176.834 1082.74 195.501C1095.08 213.834 1101.24 236.668 1101.24 264.001V272.001C1101.24 299.334 1094.91 322.168 1082.24 340.501C1069.91 358.501 1052.24 372.168 1029.24 381.501C1006.58 390.501 979.409 395.001 947.742 395.001H865.742ZM1133.36 507.001L1250.36 142.001H1399.36L1520.36 507.001H1424.36L1330.36 207.001L1356.86 217.001H1290.86L1317.86 207.001L1226.36 507.001H1133.36ZM1228.86 422.501L1256.86 346.501H1395.36L1423.36 422.501H1228.86ZM1641.38 510.001V439.001H1721.88C1735.55 439.001 1745.71 435.501 1752.38 428.501C1759.05 421.501 1762.38 411.334 1762.38 398.001C1762.38 384.668 1759.05 374.668 1752.38 368.001C1745.71 361.001 1735.55 357.501 1721.88 357.501H1641.38V302.501H1718.88C1744.55 302.501 1767.55 305.668 1787.88 312.001C1808.21 318.001 1824.21 328.001 1835.88 342.001C1847.55 356.001 1853.38 374.668 1853.38 398.001V405.001C1853.38 427.001 1848.21 445.834 1837.88 461.501C1827.55 477.168 1812.38 489.168 1792.38 497.501C1772.38 505.834 1747.88 510.001 1718.88 510.001H1641.38ZM1561.38 510.001V139.001H1651.38V510.001H1561.38ZM1641.38 343.501V288.501H1708.38C1722.05 288.501 1731.88 285.168 1737.88 278.501C1744.21 271.501 1747.38 261.834 1747.38 249.501C1747.38 236.834 1744.21 227.168 1737.88 220.501C1731.88 213.501 1722.05 210.001 1708.38 210.001H1641.38V139.001H1704.38C1747.05 139.001 1780.05 148.001 1803.38 166.001C1826.71 183.668 1838.38 209.001 1838.38 242.001V249.501C1838.38 272.501 1832.38 291.001 1820.38 305.001C1808.71 318.668 1792.71 328.501 1772.38 334.501C1752.38 340.501 1729.71 343.501 1704.38 343.501H1641.38ZM2086.57 517.001C2053.24 517.001 2024.24 511.334 1999.57 500.001C1974.9 488.334 1954.4 473.168 1938.07 454.501C1921.74 435.501 1909.57 415.001 1901.57 393.001C1893.57 371.001 1889.57 349.668 1889.57 329.001V318.001C1889.57 295.001 1893.74 272.501 1902.07 250.501C1910.4 228.168 1922.9 208.001 1939.57 190.001C1956.24 172.001 1976.74 157.668 2001.07 147.001C2025.74 136.334 2054.24 131.001 2086.57 131.001C2118.57 131.001 2146.74 136.334 2171.07 147.001C2195.74 157.668 2216.4 172.001 2233.07 190.001C2249.74 208.001 2262.24 228.168 2270.57 250.501C2279.24 272.501 2283.57 295.001 2283.57 318.001V329.001C2283.57 349.668 2279.4 371.001 2271.07 393.001C2263.07 415.001 2250.9 435.501 2234.57 454.501C2218.24 473.168 2197.74 488.334 2173.07 500.001C2148.4 511.334 2119.57 517.001 2086.57 517.001ZM2086.57 430.001C2102.57 430.001 2116.9 427.334 2129.57 422.001C2142.24 416.668 2153.07 409.168 2162.07 399.501C2171.07 389.834 2177.9 378.668 2182.57 366.001C2187.24 353.001 2189.57 339.001 2189.57 324.001C2189.57 308.001 2187.07 293.501 2182.07 280.501C2177.4 267.501 2170.57 256.334 2161.57 247.001C2152.57 237.668 2141.74 230.501 2129.07 225.501C2116.4 220.501 2102.24 218.001 2086.57 218.001C2070.57 218.001 2056.24 220.501 2043.57 225.501C2030.9 230.501 2020.07 237.668 2011.07 247.001C2002.07 256.334 1995.24 267.501 1990.57 280.501C1985.9 293.501 1983.57 308.001 1983.57 324.001C1983.57 339.001 1985.9 353.001 1990.57 366.001C1995.24 378.668 2002.07 389.834 2011.07 399.501C2020.07 409.168 2030.9 416.668 2043.57 422.001C2056.24 427.334 2070.57 430.001 2086.57 430.001ZM2339.7 507.001V142.001H2432.7V507.001H2339.7ZM2422.7 507.001V426.001H2570.7V507.001H2422.7ZM2589.41 507.001L2706.41 142.001H2855.41L2976.41 507.001H2880.41L2786.41 207.001L2812.91 217.001H2746.91L2773.91 207.001L2682.41 507.001H2589.41ZM2684.91 422.501L2712.91 346.501H2851.41L2879.41 422.501H2684.91ZM3017.43 507.001V142.001H3169.93L3291.43 433.001H3308.93L3298.93 442.001V142.001H3385.93V507.001H3232.43L3110.93 216.001H3093.43L3103.43 207.001V507.001H3017.43ZM3532.82 507.001V213.001H3625.82V507.001H3532.82ZM3432.82 223.001V142.001H3725.82V223.001H3432.82ZM3772.8 507.001V142.001H3862.8V507.001H3772.8ZM3852.8 507.001V431.001H4006.8V507.001H3852.8ZM3852.8 359.501V283.501H3996.3V359.501H3852.8ZM3852.8 218.001V142.001H4003.8V218.001H3852.8Z" fill="#1F1F1F"/>
<path d="M641.084 17.3306C617.26 27.1753 573.944 44.6988 544.607 56.5123C515.467 68.3259 491.249 78.7613 491.052 79.5488C490.855 80.3364 500.503 88.6059 512.71 97.8599C524.72 107.114 534.762 115.58 535.156 116.762C535.55 117.746 531.809 124.244 526.886 130.938C521.964 137.632 518.026 143.539 518.026 144.13C518.026 144.72 522.358 145.114 527.871 145.114H537.715L538.109 206.151L538.7 267.385L571.187 220.721C589.105 195.125 604.265 173.27 604.856 172.285C605.447 171.301 617.063 178.98 630.255 189.218C643.644 199.654 654.67 207.923 655.064 207.726C655.457 207.136 661.758 163.425 669.831 105.736C670.815 97.663 674.753 70.4917 678.297 45.6832C681.841 20.6778 684.795 0.200935 684.598 0.00404248C684.401 -0.192851 664.908 7.68287 641.084 17.3306Z" fill="#0044BD"/>
<path d="M102.582 265.613V386.309L107.307 381.386C110.064 378.63 132.51 352.049 157.712 322.318C182.717 292.587 203.982 268.173 204.966 268.173C205.951 268.173 218.946 285.499 233.713 306.567C286.677 381.78 317.195 424.506 318.967 425.49C319.952 426.278 324.874 421.159 329.6 414.464C334.325 407.573 348.698 386.899 361.496 368.588C374.294 350.08 389.061 328.816 394.378 321.334C399.694 313.655 429.424 271.126 460.14 226.825L516.254 146.099L482.389 145.508C451.87 145.115 447.932 145.311 444.979 148.462C443.01 150.431 430.212 168.348 416.233 188.431C365.434 261.085 324.48 319.365 322.708 321.924C320.346 324.484 324.087 329.603 224.065 186.462L195.712 146.099L149.246 145.508L102.582 145.115V265.613Z" fill="#1F1F1F"/>
<path d="M529.839 279.592C526.098 285.105 515.466 300.463 506.212 313.655C496.958 326.847 481.994 348.308 472.74 361.5C463.486 374.692 450.491 393.396 443.797 403.044L431.393 420.568V463.884V507.397H485.538H539.684V388.277C539.684 322.712 539.093 269.157 538.305 269.157C537.321 269.157 533.58 273.882 529.839 279.592Z" fill="#1F1F1F"/>
<path d="M70.0939 425.096C52.7673 445.967 29.9277 472.941 19.2955 485.149L0 507.397H51.1922H102.581V447.345C102.581 414.267 102.384 387.293 102.187 387.49C101.794 387.49 87.4205 404.422 70.0939 425.096Z" fill="#0044BD"/>
<path d="M181.142 437.501C169.526 450.496 151.018 471.367 139.992 483.771L120.105 506.414L160.862 507.004C183.308 507.201 202.013 507.201 202.407 506.808C202.801 506.414 202.801 485.346 202.604 459.947L202.013 413.874L181.142 437.501Z" fill="#1F1F1F"/>
</svg>
