<?xml version="1.0" encoding="UTF-8"?>
<svg id="Layer_2" data-name="Layer 2" xmlns="http://www.w3.org/2000/svg" viewBox="0 0 109.23 109.23">
  <defs>
    <style>
      .cls-1 {
        fill: none;
      }

      .cls-2 {
        fill: #0044bd;
      }
    </style>
  </defs>
  <g id="Layer_1-2" data-name="Layer 1">
    <g>
      <rect class="cls-1" width="109.23" height="109.23"/>
      <g>
        <path class="cls-2" d="M56.27,11.5c-16.86,0-30.56,13.52-30.56,30.03s13.7,30.03,30.56,30.03,30.56-13.52,30.56-30.03-13.7-30.03-30.56-30.03Z"/>
        <path class="cls-2" d="M58.15,87.29c10.83-.56,21.46-4.84,29.7-12.83l-5.25-5.25c-15.01,14.51-39.49,14.48-54.46-.11-7.31-7.13-11.25-16.5-11.25-26.63s3.64-18.76,10.42-25.77l-5.25-5.25c-8.1,8.35-12.67,19.42-12.67,31.02s4.88,23.44,13.5,31.88c7.69,7.5,17.63,11.82,27.76,12.94v3h-12.35v7.5h32.82v-7.5h-12.97v-3Z"/>
      </g>
    </g>
  </g>
</svg>