<?xml version="1.0" encoding="UTF-8"?>
<svg id="Layer_2" data-name="Layer 2" xmlns="http://www.w3.org/2000/svg" viewBox="0 0 109.23 109.23">
  <defs>
    <style>
      .cls-1 {
        fill: none;
      }

      .cls-2 {
        fill-rule: evenodd;
      }

      .cls-2, .cls-3 {
        fill: #0044bd;
      }
    </style>
  </defs>
  <g id="Layer_1-2" data-name="Layer 1">
    <g>
      <rect class="cls-1" width="109.23" height="109.23"/>
      <g>
        <circle class="cls-3" cx="54.61" cy="54.64" r="20.81"/>
        <path class="cls-2" d="M91.83,50.48c-1.92-17.35-15.71-31.15-33.07-33.07V5.25h-8.32v12.16c-17.35,1.92-31.15,15.71-33.07,33.07H5.17v8.32h12.21c1.92,17.35,15.71,31.15,33.07,33.07v12.11h8.32v-12.11c17.35-1.92,31.15-15.71,33.07-33.07h12.23v-8.32h-12.23ZM80.29,68.96c-2.41,4.93-6.43,8.95-11.36,11.36-26.72,13.06-53.07-13.29-40.01-40.01,2.41-4.93,6.43-8.95,11.36-11.36,26.72-13.06,53.07,13.29,40.01,40.01Z"/>
      </g>
    </g>
  </g>
</svg>